<?xml version="1.0" encoding="UTF-8" standalone="no"?>
<!-- Created with Inkscape (http://www.inkscape.org/) -->

<svg
   xmlns:dc="http://purl.org/dc/elements/1.1/"
   xmlns:cc="http://creativecommons.org/ns#"
   xmlns:rdf="http://www.w3.org/1999/02/22-rdf-syntax-ns#"
   xmlns:svg="http://www.w3.org/2000/svg"
   xmlns="http://www.w3.org/2000/svg"
   xmlns:sodipodi="http://sodipodi.sourceforge.net/DTD/sodipodi-0.dtd"
   xmlns:inkscape="http://www.inkscape.org/namespaces/inkscape"
   width="64px"
   height="64px"
   id="svg4362"
   version="1.1"
   inkscape:version="0.48.4 r9939"
   sodipodi:docname="New document 11">
  <defs
     id="defs4364" />
  <sodipodi:namedview
     id="base"
     pagecolor="#ffffff"
     bordercolor="#666666"
     borderopacity="1.0"
     inkscape:pageopacity="0.0"
     inkscape:pageshadow="2"
     inkscape:zoom="1.9445436"
     inkscape:cx="38.213237"
     inkscape:cy="32"
     inkscape:current-layer="layer1"
     showgrid="true"
     inkscape:document-units="px"
     inkscape:grid-bbox="true"
     inkscape:window-width="637"
     inkscape:window-height="498"
     inkscape:window-x="722"
     inkscape:window-y="18"
     inkscape:window-maximized="0" />
  <metadata
     id="metadata4367">
    <rdf:RDF>
      <cc:Work
         rdf:about="">
        <dc:format>image/svg+xml</dc:format>
        <dc:type
           rdf:resource="http://purl.org/dc/dcmitype/StillImage" />
        <dc:title></dc:title>
      </cc:Work>
    </rdf:RDF>
  </metadata>
  <g
     id="layer1"
     inkscape:label="Layer 1"
     inkscape:groupmode="layer">
    <rect
       style="fill:#000000;fill-opacity:0"
       id="rect4360"
       width="63.318855"
       height="64.089317"
       x="0.72335279"
       y="0.37598482"
       inkscape:export-filename="/home/alexander/Documents/dice/six_dark.png"
       inkscape:export-xdpi="22.256987"
       inkscape:export-ydpi="22.256987" />
    <rect
       style="fill:#000000;fill-opacity:0"
       id="rect4360-4"
       width="117.8615"
       height="101.2112"
       x="-30.132217"
       y="-4.3475552" />
  </g>
  <g
     inkscape:groupmode="layer"
     id="layer3"
     inkscape:label="6"
     sodipodi:insensitive="true">
    <path
       sodipodi:type="arc"
       style="fill:#000000;fill-opacity:1"
       id="path3849"
       sodipodi:cx="32.973324"
       sodipodi:cy="35.37672"
       sodipodi:rx="5.8290567"
       sodipodi:ry="5.655055"
       d="m 38.802381,35.37672 a 5.8290567,5.655055 0 1 1 -11.658114,0 5.8290567,5.655055 0 1 1 11.658114,0 z"
       transform="translate(-16.517021,-19.202852)" />
    <path
       sodipodi:type="arc"
       style="fill:#000000;fill-opacity:1"
       id="path3849-6"
       sodipodi:cx="32.973324"
       sodipodi:cy="35.37672"
       sodipodi:rx="5.8290567"
       sodipodi:ry="5.655055"
       d="m 38.802381,35.37672 a 5.8290567,5.655055 0 1 1 -11.658114,0 5.8290567,5.655055 0 1 1 11.658114,0 z"
       transform="translate(-16.517021,15.252533)" />
    <path
       sodipodi:type="arc"
       style="fill:#000000;fill-opacity:1"
       id="path3849-2"
       sodipodi:cx="32.973324"
       sodipodi:cy="35.37672"
       sodipodi:rx="5.8290567"
       sodipodi:ry="5.655055"
       d="m 38.802381,35.37672 a 5.8290567,5.655055 0 1 1 -11.658114,0 5.8290567,5.655055 0 1 1 11.658114,0 z"
       transform="translate(-16.517021,-2.2322892)" />
    <path
       sodipodi:type="arc"
       style="fill:#000000;fill-opacity:1"
       id="path3849-7"
       sodipodi:cx="32.973324"
       sodipodi:cy="35.37672"
       sodipodi:rx="5.8290567"
       sodipodi:ry="5.655055"
       d="m 38.802381,35.37672 a 5.8290567,5.655055 0 1 1 -11.658114,0 5.8290567,5.655055 0 1 1 11.658114,0 z"
       transform="translate(14.852807,-18.945722)" />
    <path
       sodipodi:type="arc"
       style="fill:#000000;fill-opacity:1"
       id="path3849-6-6"
       sodipodi:cx="32.973324"
       sodipodi:cy="35.37672"
       sodipodi:rx="5.8290567"
       sodipodi:ry="5.655055"
       d="m 38.802381,35.37672 a 5.8290567,5.655055 0 1 1 -11.658114,0 5.8290567,5.655055 0 1 1 11.658114,0 z"
       transform="translate(14.852807,15.509663)" />
    <path
       sodipodi:type="arc"
       style="fill:#000000;fill-opacity:1"
       id="path3849-2-9"
       sodipodi:cx="32.973324"
       sodipodi:cy="35.37672"
       sodipodi:rx="5.8290567"
       sodipodi:ry="5.655055"
       d="m 38.802381,35.37672 a 5.8290567,5.655055 0 1 1 -11.658114,0 5.8290567,5.655055 0 1 1 11.658114,0 z"
       transform="translate(14.852807,-1.9751603)" />
  </g>
</svg>
